<svg xmlns="http://www.w3.org/2000/svg" xmlns:xlink="http://www.w3.org/1999/xlink" width="421" height="235" viewBox="0 0 421 235">
  <defs>
    <clipPath id="clip-path">
      <rect id="Rectangle_23" data-name="Rectangle 23" width="166" height="166"/>
    </clipPath>
    <clipPath id="clip-path-2">
      <path id="Path_14" data-name="Path 14" d="M1.387,0h38.5a1.387,1.387,0,0,1,1.387,1.387V44.809H0V1.387A1.387,1.387,0,0,1,1.387,0Z" transform="translate(0 0)" fill="#707070" stroke="#3f3f3f" stroke-linejoin="round" stroke-width="5"/>
    </clipPath>
    <clipPath id="clip">
      <use xlink:href="#fill"/>
    </clipPath>
    <clipPath id="clip-2">
      <use xlink:href="#fill-2"/>
    </clipPath>
    <clipPath id="clip-3">
      <use xlink:href="#fill-3"/>
    </clipPath>
  </defs>
  <g id="Group_31" data-name="Group 31" transform="translate(-3 -71)">
    <path id="Path_12" data-name="Path 12" d="M20,0H401a20,20,0,0,1,20,20V215a20,20,0,0,1-20,20H20A20,20,0,0,1,0,215V20A20,20,0,0,1,20,0Z" transform="translate(3 71)" fill="#3f3f3f"/>
    <g id="cardman-multiplayer_1" data-name="cardman-multiplayer – 1" transform="translate(128 98)" clip-path="url(#clip-path)">
      <rect id="Rectangle_14" data-name="Rectangle 14" width="166" height="166" fill="rgba(255,255,255,0)"/>
      <rect id="Rectangle_15" data-name="Rectangle 15" width="166" height="166" rx="50" fill="#3f3f3f"/>
      <g id="Group_9" data-name="Group 9" transform="translate(10.827 42.985) rotate(-16.024)">
        <rect id="Rectangle_16" data-name="Rectangle 16" width="60" height="95.16" rx="20" fill="#8b8b8b"/>
        <text id="A" transform="translate(7.253 18.767)" fill="#3f3f3f" font-size="17" font-family="SegoeUI-Semibold, Segoe UI" font-weight="600"><tspan x="0" y="0">A</tspan></text>
      </g>
      <g id="Group_10" data-name="Group 10" transform="translate(23.166 70.312) rotate(-16.024)" clip-path="url(#clip-path-2)">
        <path id="Path_13" data-name="Path 13" d="M3.012.164A4.672,4.672,0,0,0,.494,2.219L0,3.1V38.313l.494.878a4.6,4.6,0,0,0,2.581,2.072c.813.223,34.308.223,35.12,0a4.6,4.6,0,0,0,2.581-2.072l.494-.878V3.1l-.494-.878A4.6,4.6,0,0,0,38.2.147C37.447-.06,3.729-.043,3.012.164Zm26.5,4.35c1.88.382,3.394.893,3.394,1.132,0,.526-1.625,7.649-1.785,7.858-.223.271-.558.207-2.357-.43-3.474-1.227-6.661-1.02-8.223.542-1.211,1.211-1.657,2.964-1.657,6.358a15.614,15.614,0,0,0,.813,5.593,5.708,5.708,0,0,0,2.932,3.012c1.673.59,4.382.494,7.378-.255,1.227-.3,1.322-.3,1.721-.046.35.223.4.35.319.844-.046.319-.239,2.055-.416,3.856a32.71,32.71,0,0,1-.446,3.378c-.319.3-3.49.781-5.768.878-7.33.266-12.427-2.012-15.059-6.729s-2.82-13-.4-18.073c2.184-4.539,5.9-7.169,11.4-8.061a34.873,34.873,0,0,1,8.159.143Z" transform="translate(0 1.691)" fill="#707070"/>
      </g>
      <g id="Group_11" data-name="Group 11" transform="matrix(0.999, 0.035, -0.035, 0.999, 41.656, 26.273)">
        <rect id="Rectangle_17" data-name="Rectangle 17" width="60" height="95.16" rx="20" transform="translate(0 0.188)" fill="#aeaeae"/>
        <text id="B" transform="translate(7.533 19)" fill="#3f3f3f" font-size="18" font-family="SegoeUI-Semibold, Segoe UI" font-weight="600"><tspan x="0" y="0">B</tspan></text>
      </g>
      <text id="_" data-name="?" transform="translate(45.332 94.369) rotate(4)" fill="#707070" font-size="55" font-family="SegoeUI-Semibold, Segoe UI" font-weight="600"><tspan x="0" y="0">?</tspan></text>
      <g id="Group_12" data-name="Group 12" transform="translate(71.296 22.652) rotate(11)">
        <rect id="Rectangle_18" data-name="Rectangle 18" width="60" height="95.16" rx="20" transform="translate(0 1.522)" fill="#d6d6d6"/>
        <text id="C" transform="translate(7.805 19)" fill="#3f3f3f" font-size="18" font-family="SegoeUI-Semibold, Segoe UI" font-weight="600"><tspan x="0" y="0">C</tspan></text>
      </g>
      <g id="Group_13" data-name="Group 13" transform="translate(59.064 49.116)">
        <g id="Rectangle_19" data-name="Rectangle 19" transform="translate(20.073 18.349) rotate(42)" fill="none" stroke="#787878" stroke-linejoin="round" stroke-width="30">
          <rect id="fill" width="19.223" height="29.999" rx="9.611" stroke="none"/>
          <path d="M0,14.99924087524414h19.222660064697266M15,0v29.99924087524414M19.222660064697266,15h-19.222660064697266M4.222660064697266,29.99924087524414v-29.99924087524414" fill="none" clip-path="url(#clip)"/>
        </g>
        <g id="Rectangle_20" data-name="Rectangle 20" transform="translate(33.762 9.611) rotate(42)" fill="none" stroke="#bcbcbc" stroke-linejoin="round" stroke-width="30">
          <rect id="fill-2" width="19.223" height="29.999" rx="9.611" stroke="none"/>
          <path d="M0,14.99924087524414h19.222660064697266M15,0v29.99924087524414M19.222660064697266,15h-19.222660064697266M4.222660064697266,29.99924087524414v-29.99924087524414" fill="none" clip-path="url(#clip-2)"/>
        </g>
        <g id="Rectangle_21" data-name="Rectangle 21" transform="translate(47.451 0) rotate(42)" fill="none" stroke="#777" stroke-linejoin="round" stroke-width="30">
          <rect id="fill-3" width="19.223" height="29.999" rx="9.611" stroke="none"/>
          <path d="M0,14.99924087524414h19.222660064697266M15,0v29.99924087524414M19.222660064697266,15h-19.222660064697266M4.222660064697266,29.99924087524414v-29.99924087524414" fill="none" clip-path="url(#clip-3)"/>
        </g>
      </g>
      <g id="Group_14" data-name="Group 14" transform="matrix(0.899, 0.438, -0.438, 0.899, 109.573, 28.603)">
        <rect id="Rectangle_22" data-name="Rectangle 22" width="60" height="95.16" rx="20" transform="translate(0 3.539)" fill="#eee"/>
        <text id="D" transform="translate(6.91 19)" fill="#3f3f3f" font-size="18" font-family="SegoeUI-Semibold, Segoe UI" font-weight="600"><tspan x="0" y="0">D</tspan></text>
      </g>
      <text id="_2" data-name="💡" transform="matrix(0.899, 0.438, -0.438, 0.899, 88.615, 93.671)" fill="#707070" font-size="39" font-family="SegoeUIEmoji, Segoe UI Emoji"><tspan x="0" y="0">💡</tspan></text>
    </g>
  </g>
</svg>
