<svg xmlns="http://www.w3.org/2000/svg" width="80" height="79.913" viewBox="0 0 80 79.913">
  <g id="at-sign" transform="translate(215 225.873)">
    <g id="Group_11" data-name="Group 11" transform="translate(-215 -226)">
      <path id="Path_8" data-name="Path 8" d="M53.1,20.106h6.134L55.027,43.852q-.7,4.118-.045,5.961a2.78,2.78,0,0,0,2.936,1.838A10.222,10.222,0,0,0,62.386,50.6a11.39,11.39,0,0,0,3.943-3.241,17.509,17.509,0,0,0,2.849-5.518,25.351,25.351,0,0,0,1.1-7.887,26.147,26.147,0,0,0-2.192-11.216,21.124,21.124,0,0,0-6-7.667A24.617,24.617,0,0,0,53.1,10.643a42.367,42.367,0,0,0-11.129-1.4,32.6,32.6,0,0,0-12.7,2.454A31.855,31.855,0,0,0,19.056,18.44a30.761,30.761,0,0,0-6.79,10.211A33.137,33.137,0,0,0,9.814,41.486a34.433,34.433,0,0,0,2.057,12.267,24.98,24.98,0,0,0,6,9.246,26.555,26.555,0,0,0,9.768,5.868,40.037,40.037,0,0,0,13.365,2.058,31.6,31.6,0,0,0,5.781-.611,24.766,24.766,0,0,0,5.872-1.842l2.715,8.413a28.751,28.751,0,0,1-7.315,2.451,46.456,46.456,0,0,1-8.543.7,48.733,48.733,0,0,1-15.729-2.453A35.231,35.231,0,0,1,11.26,70.314,33.163,33.163,0,0,1,2.976,58.353,42.653,42.653,0,0,1,0,41.837,42.125,42.125,0,0,1,3.419,24.574a40.111,40.111,0,0,1,9.2-13.145A40.844,40.844,0,0,1,26.024,3.061,44.507,44.507,0,0,1,42.145.127,46.9,46.9,0,0,1,57.13,2.448a35.8,35.8,0,0,1,12,6.66,30.631,30.631,0,0,1,7.976,10.6A33.6,33.6,0,0,1,80,33.95a27.912,27.912,0,0,1-1.972,10.516A25.927,25.927,0,0,1,64.536,58.66a23.435,23.435,0,0,1-9.857,2.1,16.393,16.393,0,0,1-4.076-.481,7.376,7.376,0,0,1-3.152-1.622,6.792,6.792,0,0,1-1.884-2.98,11.08,11.08,0,0,1-.35-4.556h-.35q-1.316,1.841-2.847,3.591a21.176,21.176,0,0,1-3.374,3.112,15.655,15.655,0,0,1-4.03,2.147,14.2,14.2,0,0,1-4.82.789,9.279,9.279,0,0,1-4.03-.918,9.873,9.873,0,0,1-3.33-2.586A12.668,12.668,0,0,1,20.2,53.227a15.7,15.7,0,0,1-.833-5.257,32.426,32.426,0,0,1,1.751-10.558,31.542,31.542,0,0,1,4.776-9.068A25.326,25.326,0,0,1,32.9,21.99a16.1,16.1,0,0,1,8.454-2.408,12.9,12.9,0,0,1,5.17.918,15.566,15.566,0,0,1,3.856,2.412Zm-5.522,10.6a9.35,9.35,0,0,0-2.364-1.49,7.792,7.792,0,0,0-3.067-.526,8.581,8.581,0,0,0-4.861,1.49,14.173,14.173,0,0,0-3.856,3.854,18.852,18.852,0,0,0-2.5,5.3,20.085,20.085,0,0,0-.877,5.74,8.606,8.606,0,0,0,1.185,4.735,4.47,4.47,0,0,0,4.072,1.838,5.654,5.654,0,0,0,2.628-.742,12.893,12.893,0,0,0,2.719-1.973,23.961,23.961,0,0,0,2.54-2.8,25.47,25.47,0,0,0,2.192-3.33Z" fill="#9d1e04"/>
    </g>
  </g>
</svg>
