<svg xmlns="http://www.w3.org/2000/svg" width="70" height="69.924" viewBox="0 0 70 69.924">
  <g id="at-sign" transform="translate(0 0)">
    <g id="Group_11" data-name="Group 11" transform="translate(0 0)">
      <path id="Path_8" data-name="Path 8" d="M46.461,17.609h5.368l-3.68,20.777a11.3,11.3,0,0,0-.039,5.215,2.432,2.432,0,0,0,2.569,1.608,8.944,8.944,0,0,0,3.91-.92,9.967,9.967,0,0,0,3.45-2.836,15.321,15.321,0,0,0,2.493-4.828,22.182,22.182,0,0,0,.959-6.9,22.878,22.878,0,0,0-1.918-9.814A18.483,18.483,0,0,0,54.321,13.2a21.54,21.54,0,0,0-7.86-3.873A37.071,37.071,0,0,0,36.723,8.1a28.523,28.523,0,0,0-11.116,2.148,27.873,27.873,0,0,0-8.932,5.9,26.916,26.916,0,0,0-5.941,8.934A29,29,0,0,0,8.587,36.316a30.129,30.129,0,0,0,1.8,10.734,21.858,21.858,0,0,0,5.253,8.09,23.235,23.235,0,0,0,8.547,5.134,35.033,35.033,0,0,0,11.694,1.8,27.649,27.649,0,0,0,5.058-.535,21.67,21.67,0,0,0,5.138-1.612l2.376,7.362a25.157,25.157,0,0,1-6.4,2.144,40.649,40.649,0,0,1-7.475.616A42.641,42.641,0,0,1,20.815,67.9,30.827,30.827,0,0,1,9.852,61.541,29.018,29.018,0,0,1,2.6,51.074,37.321,37.321,0,0,1,0,36.624,36.86,36.86,0,0,1,2.992,21.518a35.1,35.1,0,0,1,8.05-11.5,35.739,35.739,0,0,1,11.73-7.323A38.944,38.944,0,0,1,36.877.127,41.04,41.04,0,0,1,49.989,2.158a31.329,31.329,0,0,1,10.5,5.828,26.8,26.8,0,0,1,6.979,9.279A29.4,29.4,0,0,1,70,29.722a24.423,24.423,0,0,1-1.725,9.2,22.686,22.686,0,0,1-11.806,12.42,20.506,20.506,0,0,1-8.625,1.84,14.344,14.344,0,0,1-3.567-.421,6.454,6.454,0,0,1-2.758-1.419,5.943,5.943,0,0,1-1.649-2.608,9.7,9.7,0,0,1-.306-3.986h-.306q-1.152,1.611-2.491,3.142a18.529,18.529,0,0,1-2.953,2.723,13.7,13.7,0,0,1-3.526,1.879,12.422,12.422,0,0,1-4.218.69,8.119,8.119,0,0,1-3.526-.8,8.639,8.639,0,0,1-2.914-2.263,11.084,11.084,0,0,1-1.955-3.528,13.739,13.739,0,0,1-.729-4.6,28.373,28.373,0,0,1,1.532-9.239,27.6,27.6,0,0,1,4.179-7.935,22.16,22.16,0,0,1,6.134-5.559,14.085,14.085,0,0,1,7.4-2.107,11.289,11.289,0,0,1,4.524.8,13.621,13.621,0,0,1,3.374,2.11Zm-4.831,9.279a8.181,8.181,0,0,0-2.068-1.3,6.818,6.818,0,0,0-2.684-.46,7.508,7.508,0,0,0-4.253,1.3A12.4,12.4,0,0,0,29.25,29.8a16.5,16.5,0,0,0-2.187,4.637A17.574,17.574,0,0,0,26.3,39.46,7.53,7.53,0,0,0,27.332,43.6,3.911,3.911,0,0,0,30.9,45.211a4.947,4.947,0,0,0,2.3-.649,11.282,11.282,0,0,0,2.379-1.727A20.966,20.966,0,0,0,37.8,40.383a22.288,22.288,0,0,0,1.918-2.914Z" transform="translate(0 -0.127)" fill="rgba(8,9,10,0.87)"/>
    </g>
  </g>
</svg>
