<svg xmlns="http://www.w3.org/2000/svg" width="80" height="78.026" viewBox="0 0 80 78.026">
  <path id="Octicons-mark-github" d="M40,0A40,40,0,0,0,27.35,77.95c2,.35,2.75-.85,2.75-1.9,0-.95-.05-4.1-.05-7.45C20,70.45,17.4,66.15,16.6,63.9c-.45-1.15-2.4-4.7-4.1-5.65-1.4-.75-3.4-2.6-.05-2.65,3.15-.05,5.4,2.9,6.15,4.1,3.6,6.05,9.35,4.35,11.65,3.3a8.414,8.414,0,0,1,2.55-5.35c-8.9-1-18.2-4.45-18.2-19.75a15.567,15.567,0,0,1,4.1-10.75,14.374,14.374,0,0,1,.4-10.6s3.35-1.05,11,4.1a37.712,37.712,0,0,1,20,0c7.65-5.2,11-4.1,11-4.1a14.374,14.374,0,0,1,.4,10.6A15.477,15.477,0,0,1,65.6,37.9c0,15.35-9.35,18.75-18.25,19.75,1.45,1.25,2.7,3.65,2.7,7.4,0,5.35-.05,9.65-.05,11,0,1.05.75,2.3,2.75,1.9A40.021,40.021,0,0,0,40,0Z" fill="#9d1e04" fill-rule="evenodd"/>
</svg>
