<svg xmlns="http://www.w3.org/2000/svg" width="70" height="68.273" viewBox="0 0 70 68.273">
  <path id="Octicons-mark-github" d="M35,0A35,35,0,0,0,23.931,68.206c1.75.306,2.406-.744,2.406-1.662,0-.831-.044-3.588-.044-6.519-8.794,1.619-11.069-2.144-11.769-4.112-.394-1.006-2.1-4.112-3.588-4.944-1.225-.656-2.975-2.275-.044-2.319,2.756-.044,4.725,2.537,5.381,3.587,3.15,5.294,8.181,3.806,10.194,2.888A7.362,7.362,0,0,1,28.7,50.444c-7.787-.875-15.925-3.894-15.925-17.281a13.621,13.621,0,0,1,3.587-9.406,12.577,12.577,0,0,1,.35-9.275s2.931-.919,9.625,3.588a33,33,0,0,1,17.5,0c6.694-4.55,9.625-3.588,9.625-3.588a12.577,12.577,0,0,1,.35,9.275A13.542,13.542,0,0,1,57.4,33.163c0,13.431-8.181,16.406-15.969,17.281,1.269,1.094,2.363,3.194,2.363,6.475,0,4.681-.044,8.444-.044,9.625,0,.919.656,2.012,2.406,1.662A35.019,35.019,0,0,0,35,0Z" fill="rgba(8,9,10,0.87)" fill-rule="evenodd"/>
</svg>
