<svg xmlns="http://www.w3.org/2000/svg" width="70" height="70.001" viewBox="0 0 70 70.001">
  <g id="linkedin-logo" transform="translate(0 0)">
    <path id="LinkedIn__x28_alt_x29_" d="M64.833,0H5.174A5.1,5.1,0,0,0,0,5.015V64.983A5.1,5.1,0,0,0,5.174,70H64.833A5.1,5.1,0,0,0,70,64.983V5.015A5.093,5.093,0,0,0,64.833,0ZM21.224,58.6H10.648v-31.6H21.224ZM15.937,22.673h-.071c-3.547,0-5.846-2.426-5.846-5.462,0-3.1,2.367-5.458,5.984-5.458s5.842,2.359,5.913,5.458C21.916,20.248,19.622,22.673,15.937,22.673ZM59.349,58.6H48.776V41.686c0-4.249-1.532-7.148-5.356-7.148A5.777,5.777,0,0,0,38,38.382a7.063,7.063,0,0,0-.353,2.56V58.595H27.073s.138-28.64,0-31.6H37.646v4.481a10.5,10.5,0,0,1,9.526-5.224c6.959,0,12.177,4.514,12.177,14.226V58.6ZM37.577,31.571c.018-.03.043-.065.068-.1v.1Z" transform="translate(-0.002)" fill="rgba(8,9,10,0.87)"/>
  </g>
</svg>
