<svg xmlns="http://www.w3.org/2000/svg" width="80" height="80.001" viewBox="0 0 80 80.001">
  <path id="LinkedIn__x28_alt_x29_" d="M74.095,0H5.913A5.823,5.823,0,0,0,0,5.732V74.267A5.825,5.825,0,0,0,5.913,80H74.095A5.823,5.823,0,0,0,80,74.267V5.732A5.821,5.821,0,0,0,74.095,0ZM24.256,66.966H12.168V30.847H24.256ZM18.213,25.912h-.081c-4.053,0-6.681-2.772-6.681-6.243,0-3.54,2.7-6.237,6.839-6.237s6.677,2.7,6.757,6.237C25.047,23.141,22.425,25.912,18.213,25.912ZM67.827,66.966H55.744V47.641c0-4.856-1.751-8.169-6.121-8.169a6.6,6.6,0,0,0-6.2,4.393,8.072,8.072,0,0,0-.4,2.925V66.965H30.94s.158-32.732,0-36.119H43.023v5.121A12,12,0,0,1,53.911,30c7.953,0,13.917,5.159,13.917,16.259V66.966ZM42.945,36.082c.021-.034.049-.075.078-.114v.114Z" transform="translate(-0.002)" fill="#9d1e04"/>
</svg>
