<svg id="linkedin-logo" xmlns="http://www.w3.org/2000/svg" width="60" height="60.001" viewBox="0 0 60 60.001">
  <path id="LinkedIn__x28_alt_x29_" d="M55.572,0H4.435A4.367,4.367,0,0,0,0,4.3V55.7A4.369,4.369,0,0,0,4.435,60H55.572A4.367,4.367,0,0,0,60,55.7V4.3A4.365,4.365,0,0,0,55.572,0ZM18.192,50.225H9.127V23.135h9.066ZM13.66,19.434H13.6a4.681,4.681,0,0,1-5.011-4.682c0-2.655,2.029-4.678,5.129-4.678a4.7,4.7,0,0,1,5.068,4.678C18.786,17.356,16.819,19.434,13.66,19.434Zm37.211,30.79H41.808V35.731c0-3.642-1.313-6.127-4.59-6.127a4.951,4.951,0,0,0-4.649,3.3,6.054,6.054,0,0,0-.3,2.194V50.224H23.206s.119-24.549,0-27.089h9.062v3.841A9,9,0,0,1,40.433,22.5c5.965,0,10.438,3.87,10.438,12.194V50.225ZM32.209,27.061c.015-.025.037-.056.059-.086v.086Z" transform="translate(-0.002)" fill="#ffcc0a"/>
</svg>
